inDegrees=no
num_controls=7
num_derivatives=13
num_iterations=139
num_multipliers=7
num_parameters=0
num_slacks=7
num_states=26
objective=4.168683
objective_accelerations=0.296691
objective_balance=0.079022
objective_effort=0.294175
objective_height=3.437262
objective_ligament=0.061533
solver_duration=1508.280070
status=Solve_Succeeded
success=true
DataType=double
version=3
OpenSimVersion=4.4-2022-07-23-0e9fedc
endheader
time	/jointset/ground_pelvis/pelvis_tilt/value	/jointset/ground_pelvis/pelvis_tx/value	/jointset/ground_pelvis/pelvis_ty/value	/jointset/hip_l/hip_flexion_l/value	/jointset/hip_l/hip_adduction_l/value	/jointset/hip_l/hip_rotation_l/value	/jointset/back/lumbar_extension/value	/jointset/patellofemoral_l/patellar_flexion_l/value	/jointset/knee_l/knee_flexion_l/value	/jointset/knee_l/knee_adduction_l/value	/jointset/knee_l/knee_rotation_l/value	/jointset/ankle_l/ankle_angle_l/value	/jointset/subtalar_l/subtalar_angle_l/value	/jointset/ground_pelvis/pelvis_tilt/speed	/jointset/ground_pelvis/pelvis_tx/speed	/jointset/ground_pelvis/pelvis_ty/speed	/jointset/hip_l/hip_flexion_l/speed	/jointset/hip_l/hip_adduction_l/speed	/jointset/hip_l/hip_rotation_l/speed	/jointset/back/lumbar_extension/speed	/jointset/patellofemoral_l/patellar_flexion_l/speed	/jointset/knee_l/knee_flexion_l/speed	/jointset/knee_l/knee_adduction_l/speed	/jointset/knee_l/knee_rotation_l/speed	/jointset/ankle_l/ankle_angle_l/speed	/jointset/subtalar_l/subtalar_angle_l/speed	/forceset/tau_hip_flexion_l	/forceset/tau_hip_adduction_l	/forceset/tau_hip_rotation_l	/forceset/tau_knee_flexion_l	/forceset/tau_ankle_angle_l	/forceset/tau_subtalar_angle_l	/forceset/tau_lumbar_extension	lambda_cid13_p0	lambda_cid13_p1	lambda_cid13_p2	lambda_cid13_p3	lambda_cid13_p4	lambda_cid13_p5	lambda_cid14_p0	/jointset/ground_pelvis/pelvis_tilt/accel	/jointset/ground_pelvis/pelvis_tx/accel	/jointset/ground_pelvis/pelvis_ty/accel	/jointset/hip_l/hip_flexion_l/accel	/jointset/hip_l/hip_adduction_l/accel	/jointset/hip_l/hip_rotation_l/accel	/jointset/back/lumbar_extension/accel	/jointset/patellofemoral_l/patellar_flexion_l/accel	/jointset/knee_l/knee_flexion_l/accel	/jointset/knee_l/knee_adduction_l/accel	/jointset/knee_l/knee_rotation_l/accel	/jointset/ankle_l/ankle_angle_l/accel	/jointset/subtalar_l/subtalar_angle_l/accel	gamma_cid13_p0	gamma_cid13_p1	gamma_cid13_p2	gamma_cid13_p3	gamma_cid13_p4	gamma_cid13_p5	gamma_cid14_p0
1.5	-0.2508043762666212	0.02440061439810838	0.8163369455755486	0.8958855468983947	-0.3043542951311421	-0.04993964087360211	-0.3064798321115512	0.6578669234545895	0.6578669234546639	-0.1708675558657852	0.1744466233276538	0.1871617236427021	-0.01155031794031713	0.2045846393782588	0.0584972813704093	0.308727555198027	-1.360216643508023	0.02827970083354064	-0.5928878119751395	0.5823868613042333	-1.672433298177224	-1.672433298177247	0.009550350976999097	-0.0007148474909683325	-0.6255199656028061	-0.08206803641232373	-0.1407928696592055	0.03085418414718134	-0.0251870602852139	-0.2280853937618136	0.0353611178674554	0.04238650184718175	0.155873481610381	-26.89498985798045	-18.16277831272622	7.59154484857818	5.46000581132376	-612.4701577526984	-63.12587651753286	-30.078297771744	0.217503842401328	0.2077441439800839	-0.283875226620315	-0.8376701569684958	0.4805314671555403	-0.3808417922772102	1.054780436388163	-1.011920060309555	-1.011920060309464	-0.03892058730194523	-0.02189507725274248	-0.3937064424026439	0.477688025026887	2.010233612368413e-07	9.490031191730836e-07	-1.089661703706976e-06	-8.303886213562598e-09	1.951798516425169e-07	8.47496876037884e-07	2.1727252132507e-07
1.51	-0.2487477421343298	0.02499591734610486	0.8194094083958455	0.8822430865963232	-0.3040479788243458	-0.05588725604709346	-0.3006040962486788	0.6410942429077955	0.6410942429078631	-0.1707751523820291	0.174439499096425	0.1808875042444767	-0.01234777943434167	0.2067222858436642	0.06055445783255891	0.305705579943883	-1.368084811021409	0.03299641092934307	-0.5965387825900001	0.5926802720161856	-1.68186708990191	-1.68186708990184	0.008912227457522296	-0.0007199786618099427	-0.6292325323684793	-0.07741039080069445	-0.1365171509030198	0.02973821748109155	-0.02505068254200053	-0.2261437267082999	0.03887606806021607	0.04166556967377349	0.1521098880969345	-25.67478362345845	-18.12082663853178	7.650534923790058	5.048472561849465	-609.977297630278	-63.28384327123651	-30.99799091725241	0.20892039878009	0.2033944796036755	-0.3202497328917843	-0.7327874637995392	0.4691431783333546	-0.3425936951402776	1.004615500440701	-0.8737823003480247	-0.873782300334129	-0.07882821709010239	0.008794368445221872	-0.3463040195803698	0.461757886624542	1.280185855686095e-07	1.131133823777276e-06	-7.48962179238748e-07	5.539582288194855e-08	1.43183749984901e-07	8.208202388686609e-07	1.786913662169482e-07
1.52	-0.2466703264673545	0.0256115300751774	0.822449873251985	0.8685276651361382	-0.3036941149370833	-0.06186845472652068	-0.2946278274562952	0.6242342897294397	0.6242342897293989	-0.1706896441301445	0.1744320468544336	0.1745789047334173	-0.01309827346077107	0.2087409463158433	0.06255923758562046	0.3023279623665984	-1.374808875145815	0.03778921692675594	-0.5996045131668296	0.6024934472017948	-1.689887824498586	-1.689887824498424	0.008171304625297363	-0.0007804496148437215	-0.6323959881713811	-0.07267454289330258	-0.1322414321461795	0.02862225081515136	-0.02491430480008554	-0.2242020596544816	0.04239101825301914	0.04094463750056406	0.1483462945840584	-24.46181744972195	-18.08025992455852	7.712776542485662	4.640385285911457	-607.6099708878323	-63.49164479831079	-31.89630110444963	0.1937066437561381	0.1972648021623131	-0.3550036912484123	-0.6088494791725602	0.495750647477657	-0.2637937846712134	0.9587333311195975	-0.7293086347074516	-0.7293086347074452	-0.05948044985156289	-0.03296303369091008	-0.2838842498485574	0.4933284841793022	8.808855033549144e-08	1.257149512683172e-06	-5.71173409705721e-07	9.265030228516051e-08	1.168974550973169e-07	8.20463967547915e-07	1.605278913893307e-07
1.53	-0.2445733452739105	0.02624691023194445	0.8254548187903172	0.8547507850988887	-0.3032920098566576	-0.06787762438165827	-0.2885559364694449	0.6073013086929876	0.6073013086929097	-0.1706119686008273	0.1744239401341799	0.1682414538432196	-0.01380107761176751	0.2106319740212842	0.06450571037924284	0.2986052711594098	-1.380366610332452	0.04264044591224496	-0.6021392142215074	0.6117938338750712	-1.696460756947651	-1.69646075694765	0.007354133958086838	-0.0008430923585305939	-0.6349976935807682	-0.06787599292765187	-0.1278005940289368	0.02731208701081047	-0.02482244858064322	-0.2224263398239127	0.04620167195066924	0.04013366391949397	0.1444545670722297	-23.15590545341979	-18.01567880328743	7.769836943188994	4.177832283727472	-605.2359179272424	-63.69087052212909	-32.76930305229023	0.1833124718075936	0.1916973508823154	-0.3892592606779249	-0.4991468716044124	0.4810621425860119	-0.2346043492992648	0.9020538915003448	-0.5841748613528798	-0.5841748613769916	-0.0941179785558181	0.006871489547193211	-0.2338177998512609	0.474514698142349	8.330042681468123e-08	1.32354299740963e-06	-5.664773172913438e-07	1.018067251403048e-07	1.179278299028912e-07	8.48073084941176e-07	1.640582018597488e-07
1.54	-0.2424581514758256	0.02690142688323256	0.8284208659315327	0.8409243454432003	-0.3028411418626525	-0.0739094002640774	-0.282393769104631	0.5903100204696824	0.5903100204697039	-0.1705427212987259	0.1744151642635415	0.1618808850762453	-0.0144556169740303	0.2123834672415452	0.06638653648983282	0.2945482829432612	-1.384720798846826	0.04754179963783942	-0.604125758613544	0.620548722791073	-1.701549261850598	-1.701549261850759	0.006485659154866587	-0.0009142797320611409	-0.637019563524859	-0.06302158514661703	-0.1233597559113479	0.02600192320632698	-0.02473059235933827	-0.2206506199936273	0.05001232564819932	0.03932269033821312	0.1405628395607999	-21.85768725372352	-17.95219470230576	7.829864756843203	3.720054046485	-602.9948160469625	-63.94118054680577	-33.61310541035198	0.1657997467201884	0.1841354655556465	-0.4218630930404007	-0.3681401447197468	0.5057755954986258	-0.1541624521432197	0.8496337796646948	-0.4324231254839873	-0.4324231254839929	-0.06974127705345756	-0.03467195965944631	-0.1679171567895606	0.5045000472560651	7.768331429830398e-08	1.383595713875185e-06	-5.600377651876485e-07	1.104422814592947e-07	1.183559486274376e-07	8.709859961343396e-07	1.668734795375108e-07
1.55	-0.2403261607890602	0.02757439808494947	0.8313447121622262	0.827060442046625	-0.3023410831477399	-0.07995843868283653	-0.2761468876653679	0.5732753684887786	0.5732753684888116	-0.1704823940107671	0.1744057797493697	0.1555030216423528	-0.01506139640903418	0.2139889600062933	0.06819374954375208	0.2901691966318455	-1.387850415416379	0.05247236898036107	-0.605589722162115	0.628725468244271	-1.705123237887689	-1.705123237887832	0.005571280185596949	-0.0009627223055156163	-0.6384531968070268	-0.05812969468025342	-0.1187952774273162	0.0245014420415908	-0.02468126933227902	-0.2189913697607553	0.05403128646438243	0.0384381939929255	0.1365743682036676	-20.49553574023049	-17.86715279931819	7.885517045392942	3.233377433350247	-600.7670979126638	-64.18683693041527	-34.42378723062041	0.1540752097804553	0.1769456667150476	-0.4536727962614348	-0.253944203082362	0.4869994857156738	-0.1285045010333889	0.786380405537509	-0.2812343706830359	-0.2812343706802506	-0.1033800184336927	0.01017250870838021	-0.1160760310706488	0.4820583916064083	7.111106228703433e-08	1.436342762561872e-06	-5.515894443114779e-07	1.184777089431501e-07	1.180901636064518e-07	8.884880610534782e-07	1.688649150846039e-07
1.56	-0.2381788849409606	0.02826502770548708	0.8342232192505918	0.8131715281264262	-0.3017916583629741	-0.08601931497604783	-0.2698213016760732	0.5562127068419419	0.5562127068419515	-0.1704314292748611	0.1743959313923866	0.1491138239522139	-0.01561815197031807	0.2154404995081664	0.06991822025397025	0.2854804544777295	-1.389722903586268	0.05741501360635069	-0.6064933335034457	0.6362896327930517	-1.707151195039236	-1.70715119503936	0.004613148753551045	-0.001007048283107647	-0.6392864147748063	-0.05321681040267783	-0.1142307989426969	0.02300096087691695	-0.02463194630557456	-0.2173321195277328	0.05805024728056699	0.03755369764771342	0.1325858968470686	-19.14147253751402	-17.78280430092017	7.943690247676363	2.752586540536529	-598.6788034737564	-64.48388323171193	-35.19753555618853	0.1350090941452593	0.1675869968152576	-0.4837942615804807	-0.1167144647867904	0.5081906521922318	-0.04209201069539017	0.7271175987812475	-0.1232193483750928	-0.1232193483751071	-0.0784917696086732	-0.03384864048675432	-0.04783409391210415	0.5086988094983966	6.457010430098884e-08	1.48408813488193e-06	-5.439769947208001e-07	1.256986438509082e-07	1.18117894321719e-07	9.032368092103883e-07	1.706537862432967e-07
1.57	-0.2360178932158961	0.02897245755982741	0.8370533364517279	0.7992702481008238	-0.3011928064573448	-0.09208652629875502	-0.2634232445845276	0.5391375839952554	0.5391375839952097	-0.1703902325495186	0.1743857546044273	0.14271931417721	-0.01612571646181365	0.2167287008176151	0.07155043308517256	0.2804957536893626	-1.390313026838634	0.06235243011714295	-0.6068534631785412	0.6432087017830501	-1.707605463480407	-1.707605463480513	0.003621129550217136	-0.001028716773630487	-0.6395127402682749	-0.04829571868853859	-0.1095527236649617	0.02136528956677954	-0.02462996708445771	-0.2157895137389072	0.06227382727715444	0.03655140011047335	0.1285102925554825	-17.72738288050996	-17.65506184907393	7.991811317493748	2.250136657694882	-596.6249448925073	-64.73228064117446	-35.93058608735787	0.121359752907043	0.1584678909613913	-0.5128690485636038	0.002856376604929187	0.4859987277592438	-0.01847151949930871	0.6573389891966961	0.03362141712796854	0.03362141713085347	-0.1101200985061051	0.01373343557928296	0.005409026056339254	0.4836890187837182	5.806826384647357e-08	1.5255814117437e-06	-5.374093842369884e-07	1.319014630385446e-07	1.185125197073024e-07	9.145439114145124e-07	1.721894519164889e-07
1.58	-0.2338448926570207	0.02969569543541815	0.8398321944327605	0.7853696703691793	-0.3005446840711481	-0.098154438532937	-0.2569593893150465	0.5220659488659135	0.5220659488659154	-0.1703590686367245	0.1743753730094547	0.1363256293078975	-0.01658409510288509	0.2178422662695658	0.07307982450405132	0.2752286104570838	-1.389582444808299	0.06726910971739623	-0.6066335157969458	0.6494492683765266	-1.706453651556935	-1.706453651557023	0.002606586234485024	-0.001048009707609536	-0.6391214336369221	-0.04337964031790283	-0.1048746483867182	0.01972961825668927	-0.02462798786244879	-0.214246907950126	0.06649740727372712	0.03554910257327792	0.1244346882643621	-16.32163810948343	-17.52778536596451	8.042208554452076	1.754142173329238	-594.7146307661827	-65.03218070346783	-36.61938183663959	0.1000819226457542	0.1470227143503556	-0.5402827503628906	0.1474265917532945	0.5040432700844008	0.07392340064257658	0.5914171194769262	0.1979967245536347	0.1979967245536221	-0.08299659208824253	-0.03337352917784304	0.07569233105192788	0.507696140797668	5.876098601434131e-08	1.554572106385878e-06	-5.542528084555927e-07	1.316822838900547e-07	1.301267248179112e-07	9.29631882096191e-07	1.763380833735406e-07
1.59	-0.2316615895842797	0.03043369991781771	0.842557044394621	0.7714828750944447	-0.2998476262821087	-0.1042171626298716	-0.2504366731416235	0.5050137711129129	0.5050137711128768	-0.1703383642272029	0.1743647380282521	0.1299389049342254	-0.01699346346277929	0.2187861708927288	0.07450222769593437	0.2696994007370241	-1.387550439493233	0.07213092953143774	-0.6058134730485829	0.6549743899877649	-1.703705725241894	-1.703705725241921	0.001527864769877525	-0.001077547423052114	-0.6381170423504399	-0.03850069334168714	-0.1001026949935036	0.01789291934644783	-0.02468182000367409	-0.2128795397974268	0.07098776011636365	0.03447443558083325	0.1203018285111757	-14.8379447239232	-17.38173617878473	8.088480397163602	1.210179003918124	-592.9017185092375	-65.33630813131595	-37.26324584251084	0.08672445913998389	0.1370459636257815	-0.5655026668453871	0.2650212519117077	0.4754522157147439	0.1009142552003601	0.5151232339781834	0.3545789324196291	0.3545789324288041	-0.1210824213876493	0.01261435216385098	0.1287930906931902	0.4768215531182228	6.921775745544262e-08	1.566595010872895e-06	-6.028683511989027e-07	1.22747535571108e-07	1.569675024124823e-07	9.498510314259786e-07	1.840328826801155e-07
